<svg id="layer" xmlns="http://www.w3.org/2000/svg" viewBox="0 0 600.1 301"><defs><style>.cls-1{fill:#ffd200;}.cls-2{fill:#fff;}.cls-3{fill:#9fa1a4;}</style></defs><path class="cls-1" d="M150.6,285.9C76,285.9,15.3,225.2,15.3,150.6S76,15.3,150.6,15.3,285.9,76,285.9,150.6,225.2,285.9,150.6,285.9"/><path d="M150.6,0A150.5,150.5,0,1,0,301,150.5,150.55,150.55,0,0,0,150.6,0m0,285.9C76,285.9,15.3,225.2,15.3,150.6S76,15.3,150.6,15.3,285.9,76,285.9,150.6,225.2,285.9,150.6,285.9"/><path d="M246.1,171.5c6.5-9.9,7.2-29.1,5.8-35.5-.3-.1-19.1-10.3-62.1-24.7a30.64,30.64,0,0,0,8.5-6.3c-.6-1.4-13.4-9.9-19.6-11.7,9.5-6.1,25.9-23.8,29.1-27.4-10-4.5-23.1-5.8-26.6-6,7.6-6,22-15.6,27.9-17.2-.2-.2-8.5-4.3-21.8-4.6-20.2-.5-30.9,4-45.7,11.6-.1,0,5.7-14.9,6.6-17.6a92.39,92.39,0,0,0-15.3,9.4c-9.3,7.2-18,13.2-25,22.4A17.69,17.69,0,0,0,105,80c1.3,3.6,3,7.4,3.8,11.1,1.4,7.1.6,7.4.1,7.4-5.4,1-9.8,4.7-13.6,9.4-4.5,5.7-6.9,12.2-8.9,19.1-1.6-.6-7.9-3.1-18.5-3.1-19.4,0-26.5,13.2-27.8,16.8-5.5,15.2,2.7,35.5,2.7,35.5s.8,14.7,4,23.6c1.1,3.3,6.9,4,10.6,4.2,9.6.4,8.8,13.6,6.3,20.6,0,.1,13-2.2,14.1-15.1,0-.1,5.8,3.7,7.7,7,.1,0,6-6.6,3.5-15.3,9.5,11.4,11.4,32.3,11.6,32.2,2.4-1.8,6.4-6.7,6.4-6.7s-1.6,11.2-4.2,11.7-5.6.9-5.6.9l-8.7,10.9h25.3c.2-6.1,3.9-19.3,5.5-23.4a53.85,53.85,0,0,0,6.8,6.2c.2-.3-.3-7.2,6.6-23.2,3.1,4.9,5.3,7.9,5.5,7.9,18.6-3.8,60.2-29.9,60.6-30.2,1,1.3,11.6,17.4,26.6,22.7-3.4,10.6-21.6,27.9-23.4,28.3-.4.1-5.3,1-5.3,1L188,250.3h26.7c2-12.8,23.6-28.1,29.3-39.5,1.3-2,0-3.9-.2-4.4-3.5-4.8-4.4-7.4-4-13.7-.3-7.9,3.1-14.6,6.3-21.2"/><path class="cls-2" d="M58.9,168a9.17,9.17,0,0,0-8.1,5v1.9l9.2-3.2,1.6-3.2a6.18,6.18,0,0,0-2.7-.5"/><path class="cls-3" d="M137,200.6c2.8,4.4,4.8,7.2,5,7.1,16.9-3.5,47.2-22.5,47.6-22.8Z"/><path class="cls-3" d="M158.1,95.2l-11,7.3a139.32,139.32,0,0,1,35.3,4,51.82,51.82,0,0,0-24.3-11.3"/><path class="cls-2" d="M189.8,70.4c-27.2,1.3-38.6,8.6-38.6,8.6l8.2-9.9c5.1-6.8,13.7-15.4,26.9-23.8-49.6,19.9-59.8,34.3-59.8,34.3l2.7-12.1c.3-2.2,3.3-12.7,3.8-15.3-16.4,13.4-20.9,21.9-19,28.4,1.3,4.4,6,14.2,6.2,20.9.2,7.8-2.5,14.6-4.8,23.5,0,0,28.7,9.3,44.1,5.6,0,0-6.8-5.3-6.9-8.4,19.6-5.5,29.5-16,29.7-15.9h0a139.32,139.32,0,0,0-35.3-4L158,95h0c10.8-8,23.2-13.6,31.8-24.6"/><path class="cls-3" d="M129.1,67.6c18.6-11.5,34.3-17.1,44.6-19.8a74.5,74.5,0,0,1,12.6-2.4c-49.6,19.9-59.8,34.3-59.8,34.3Z"/><path class="cls-3" d="M159.4,69.2s16.4-1.8,30.4,1.3c-27.2,1.3-38.6,8.6-38.6,8.6l8.2-9.9"/><path class="cls-2" d="M63.9,156.7c5.3-2.2,9.8-10.3,11.4-18a60.48,60.48,0,0,0-.9-9.4c.1.9-2.6,21.2-17.7,21.8-3.5.1-4.9.8-5.4,4.9a8.53,8.53,0,0,0,0,1.6h0a19.38,19.38,0,0,0,12.6-.9"/><path class="cls-3" d="M55,162.4s12.7,1.8,16.9-6.4c3.6-6.6,3.3-16.5,3.3-17.3h0c-1.5,7.7-6.1,15.8-11.4,18a20.24,20.24,0,0,1-12.7.8h0c.2.4.6,4,3.9,4.9"/><path d="M594.3,247.6a2.76,2.76,0,0,1,2.9-2.8,2.82,2.82,0,0,1,2.9,2.8,2.76,2.76,0,0,1-2.9,2.8,3,3,0,0,1-2.9-2.8m2.9-2.2a2.2,2.2,0,1,0,2.1,2.2,2.14,2.14,0,0,0-2.1-2.2m-.5,3.7h-.6V246h1.2c.8,0,1.2.2,1.2.9a.73.73,0,0,1-.8.8l.8,1.4h-.7l-.7-1.3h-.4Zm0-1.8h.5c.4,0,.6-.1.6-.4s-.2-.4-.6-.4h-.5Z"/><path d="M346.9,82.6h1.3c3.6,0,4.8-1.4,4.8-5.2,0-3.6-1.3-5-4.8-5h-1.3Zm0-18.6h1c3.2,0,4.9-.7,4.9-4.2s-1.8-4.2-4.9-4.2h-1ZM332.2,92.6V55.5l-5.8-10h25.2c3.7,0,7.8-.1,11,1.9,3.5,2.1,4.7,6.1,4.7,10,0,5.4-2.1,9.1-7.4,10.5V68c6,.8,8.1,5.6,8.1,11.1,0,3.8-.9,8.1-3.9,10.6-3.3,2.7-7.6,2.8-11.7,2.8H332.2Z"/><path d="M544.5,69.8v7.6c0,3,.1,5.2-3.7,5.2h-1.4v-37H521.8l2.9,10v37h32.7V69.8Z"/><path d="M576,78.9c0,.3-.2,3.7,2.8,3.7s2.9-3.3,2.9-3.7V58.4a2.59,2.59,0,0,0-2.9-2.9c-3,0-2.8,3.3-2.8,3.6Zm20.4.1c0,11.6-7.1,14.5-17.5,14.5S561.4,90.6,561.4,79V59.2c0-11.6,7.1-14.5,17.5-14.5s17.5,2.9,17.5,14.5Z"/><path d="M482.4,61.7V45.6H447.1l2.9,10V92.7h14.6V74.9h9.3V64.6h-9.3V55.7c2.8-.2,4,.3,4.6,1.3s.4,2.7.4,4.9h12.8Z"/><path d="M444.3,61.7V45.6H409l2.9,10V92.7h14.6V74.9h9.3V64.6h-9.3V55.7c2.8-.2,4,.3,4.5,1.3s.4,2.7.4,4.9h12.9Z"/><path d="M391.9,45.6V79.3c0,.9-.2,3.3-2.9,3.3s-2.9-2.4-2.9-3.3V45.6H368.5l2.9,10v22c.1,5,.5,8.9,4.5,12.5,3.5,3,8.8,3.5,13.1,3.5s9.6-.5,13.1-3.5c4-3.5,4.4-7.5,4.5-12.5v-32Z"/><path d="M498.8,71.1l2.4-15.6h.2l2.4,15.6Zm14.1-25.5H485.2l2.9,10-6.4,37.1h13.4l1.6-10h9l1.8,10H521Z"/><path d="M506.5,140.2v13.2c0,5.1.1,9-6.4,9h-2.5V98.3H467.2l5,17.3v64.1h56.5V140.2Z"/><polygon points="438.3 115.5 433.2 98.3 463.6 98.3 463.6 179.7 438.3 179.7 438.3 115.5"/><path d="M561.7,162.5h2c5.5,0,7.2-2,7.2-7.9V123.9c0-5.9-1.7-8.4-7.2-8.4h-2Zm6.5-64.2c6.9,0,14.9.1,20.7,4.6,6.6,5.2,7.3,12.6,7.3,20.4v30.5c0,8-.4,14.2-6.6,20-5.8,5.5-13,6-20.7,6H536.2V115.7l-5-17.3h37Z"/><polygon points="403.4 98.3 397.9 140.2 397.7 140.2 392.2 98.3 374.4 98.3 368.9 140.2 368.7 140.2 363.2 98.3 326.4 98.3 339.6 115.5 351.4 179.7 375.3 179.7 383.2 151.5 383.4 151.5 391.3 179.7 415.2 179.7 430.1 98.3 403.4 98.3"/><polygon points="387.8 185.4 383.4 218.8 383.2 218.8 378.8 185.4 364.6 185.4 360.2 218.8 360.1 218.8 355.7 185.4 326.4 185.4 337 199.1 346.3 250.2 365.4 250.2 371.7 227.7 371.8 227.7 378.1 250.2 397.2 250.2 409.1 185.4 387.8 185.4"/><polygon points="415.2 199.1 411.2 185.4 435.4 185.4 435.4 250.2 415.2 250.2 415.2 199.1"/><polygon points="473 214.7 473.2 214.7 473.2 185.4 489.5 185.4 489.5 250.2 469.9 250.2 457.9 221.1 457.7 221.1 457.7 250.2 442 250.2 442 199.1 438 185.4 461.7 185.4 473 214.7"/><path d="M542.3,207.9H522.9v-1.4c0-2.9.6-7.3-3.9-7.3-3.8,0-4.1,3.5-4.1,6.3v26.7a4,4,0,0,0,4.1,4.2c4.5,0,3.9-4.5,3.9-7.4v-3.8l-4-13.7h23.5v33c-6.4,5.7-16,7-24.2,7-5.8,0-12.5-.5-17.1-4.3-6-5.1-6.3-11-6.3-18.1V204.4c0-5.7.7-11.3,5.4-15.3s11.1-5.1,17.1-5.1c8.8,0,18,2,25.1,7.5v16.4Z"/><path d="M575.6,206c0-2.9-.1-6.9-4-6.9-2.6,0-3.9.8-3.9,3.3a4.8,4.8,0,0,0,1.2,3.6c1.1,1.2,4,2.1,5.7,2.6,4.8,1.3,11.3,3,15.4,5.8a12.21,12.21,0,0,1,5,6.2,24.5,24.5,0,0,1,1.5,8.9v.3c0,12.5-5.5,21.7-24.8,21.7-8.2,0-16.9-1.6-23.5-6.8V227.3h19.7c0,3.9-.1,5.7.6,7a4.08,4.08,0,0,0,3.6,2.1c2.7,0,3.9-1.6,3.9-3.9,0-6.7-4.2-7.2-9.8-8.6-12.2-3-19.1-6-19.1-20v-1.4c.3-7,1.4-10.4,6.7-14.4,4.3-3.3,10.6-4,16.6-4,8.8,0,16.6,1.8,23.9,6.8v15.3H575.5V206Z"/></svg>